<svg width="980" height="300" viewBox="0 0 980 300" fill="none" xmlns="http://www.w3.org/2000/svg">
  <defs>
    <linearGradient id="bg" x1="0" y1="0" x2="980" y2="300" gradientUnits="userSpaceOnUse">
      <stop stop-color="#0B1120"/>
      <stop offset="1" stop-color="#020617"/>
    </linearGradient>
    <filter id="cardShadow" x="14" y="30" width="952" height="220" filterUnits="userSpaceOnUse" color-interpolation-filters="sRGB">
      <feDropShadow dx="0" dy="18" stdDeviation="22" flood-color="#000000" flood-opacity=".34"/>
    </filter>
  </defs>
  <rect width="980" height="300" rx="28" fill="url(#bg)"/>
  <path d="M0 86h980M0 174h980M164 0v300M328 0v300M492 0v300M656 0v300M820 0v300" stroke="#94A3B8" stroke-opacity=".07"/>
  <g filter="url(#cardShadow)" font-family="Inter,Segoe UI,Arial,sans-serif">
    <rect x="42" y="58" width="190" height="126" rx="22" fill="#0F172A" stroke="#334155"/>
    <text x="88" y="106" fill="#F8FAFC" font-size="22" font-weight="850">Browser</text>
    <text x="82" y="140" fill="#94A3B8" font-size="15" font-family="JetBrains Mono,Consolas,monospace">example.com</text>

    <path d="M254 121h86" stroke="#67E8F9" stroke-width="5" stroke-linecap="round"/>
    <path d="m329 107 18 14-18 14" stroke="#67E8F9" stroke-width="5" stroke-linecap="round" stroke-linejoin="round"/>

    <rect x="364" y="42" width="236" height="158" rx="24" fill="#0F172A" stroke="#334155"/>
    <rect x="386" y="70" width="192" height="34" rx="12" fill="#67E8F9" fill-opacity=".16"/>
    <text x="438" y="94" fill="#67E8F9" font-size="22" font-weight="850">Nginx</text>
    <text x="398" y="134" fill="#E2E8F0" font-size="15" font-family="JetBrains Mono,Consolas,monospace">/     -> frontend</text>
    <text x="398" y="162" fill="#E2E8F0" font-size="15" font-family="JetBrains Mono,Consolas,monospace">/api  -> app.jar</text>

    <path d="M622 121h86" stroke="#67E8F9" stroke-width="5" stroke-linecap="round"/>
    <path d="m697 107 18 14-18 14" stroke="#67E8F9" stroke-width="5" stroke-linecap="round" stroke-linejoin="round"/>

    <rect x="732" y="58" width="206" height="126" rx="22" fill="#0F172A" stroke="#334155"/>
    <text x="774" y="106" fill="#F8FAFC" font-size="22" font-weight="850">Spring Boot</text>
    <text x="774" y="140" fill="#94A3B8" font-size="15" font-family="JetBrains Mono,Consolas,monospace">127.0.0.1:8080</text>

    <rect x="364" y="224" width="236" height="44" rx="16" fill="#111827" stroke="#334155"/>
    <text x="414" y="252" fill="#CBD5E1" font-size="16" font-weight="760">systemd keeps it alive</text>
    <path d="M482 200v24" stroke="#67E8F9" stroke-width="5" stroke-linecap="round"/>
  </g>
</svg>
