<svg xmlns="http://www.w3.org/2000/svg" width="1280" height="380" viewBox="0 0 1280 380" role="img" aria-label="Student Deploy Kit banner">
  <defs>
    <linearGradient id="bg" x1="0" y1="0" x2="1" y2="1">
      <stop offset="0" stop-color="#0f1f1e"/>
      <stop offset="0.55" stop-color="#173b37"/>
      <stop offset="1" stop-color="#bd5539"/>
    </linearGradient>
    <linearGradient id="card" x1="0" y1="0" x2="1" y2="1">
      <stop offset="0" stop-color="#fffaf0"/>
      <stop offset="1" stop-color="#eadfcd"/>
    </linearGradient>
    <filter id="shadow" x="-20%" y="-20%" width="140%" height="140%">
      <feDropShadow dx="0" dy="20" stdDeviation="20" flood-color="#06110f" flood-opacity="0.35"/>
    </filter>
  </defs>

  <rect width="1280" height="380" rx="28" fill="url(#bg)"/>
  <path d="M0 292c170-42 322-48 456-17 165 38 302 41 458 8 120-25 234-28 366-9v106H0Z" fill="#f6f1e7" opacity="0.12"/>
  <circle cx="1090" cy="90" r="142" fill="#fffaf0" opacity="0.08"/>
  <circle cx="112" cy="330" r="96" fill="#d7b46a" opacity="0.13"/>

  <g transform="translate(76 56)">
    <rect x="0" y="0" width="620" height="268" rx="20" fill="#fffaf0" opacity="0.98" filter="url(#shadow)"/>
    <rect x="0" y="0" width="620" height="54" rx="20" fill="#0f1f1e"/>
    <circle cx="30" cy="27" r="7" fill="#d65b43"/>
    <circle cx="54" cy="27" r="7" fill="#e6b85c"/>
    <circle cx="78" cy="27" r="7" fill="#7eaa82"/>
    <text x="34" y="104" font-family="Consolas, Menlo, monospace" font-size="24" fill="#bd5539" font-weight="700">$ deploy student project</text>
    <text x="34" y="148" font-family="Consolas, Menlo, monospace" font-size="22" fill="#0f1f1e">nginx  -> frontend dist</text>
    <text x="34" y="188" font-family="Consolas, Menlo, monospace" font-size="22" fill="#0f1f1e">systemd -> spring boot jar</text>
    <rect x="34" y="216" width="190" height="34" rx="8" fill="#173b37"/>
    <text x="56" y="239" font-family="Inter, Arial, sans-serif" font-size="17" fill="#fffaf0" font-weight="700">copy, edit, ship</text>
  </g>

  <g transform="translate(780 66)">
    <text x="0" y="42" font-family="Inter, Arial, sans-serif" font-size="50" fill="#fffaf0" font-weight="800">Student</text>
    <text x="0" y="100" font-family="Inter, Arial, sans-serif" font-size="50" fill="#fffaf0" font-weight="800">Deploy Kit</text>
    <text x="0" y="152" font-family="Inter, Arial, sans-serif" font-size="23" fill="#f6f1e7" opacity="0.92">Nginx, Spring Boot, frontend,</text>
    <text x="0" y="184" font-family="Inter, Arial, sans-serif" font-size="23" fill="#f6f1e7" opacity="0.92">Docker and VPS hardening.</text>

    <g transform="translate(0 228)">
      <rect width="126" height="40" rx="20" fill="#fffaf0"/>
      <text x="26" y="26" font-family="Inter, Arial, sans-serif" font-size="16" fill="#0f1f1e" font-weight="700">Nginx</text>
      <rect x="144" width="174" height="40" rx="20" fill="#fffaf0"/>
      <text x="169" y="26" font-family="Inter, Arial, sans-serif" font-size="16" fill="#0f1f1e" font-weight="700">Spring Boot</text>
      <rect x="336" width="132" height="40" rx="20" fill="#fffaf0"/>
      <text x="366" y="26" font-family="Inter, Arial, sans-serif" font-size="16" fill="#0f1f1e" font-weight="700">Docker</text>
    </g>
  </g>
</svg>
