<svg xmlns="http://www.w3.org/2000/svg" width="1280" height="520" viewBox="0 0 1280 520" role="img" aria-label="Student Deploy Kit banner">
  <defs>
    <linearGradient id="bg" x1="0" y1="0" x2="1" y2="1">
      <stop offset="0" stop-color="#0f1f1e"/>
      <stop offset="0.55" stop-color="#173b37"/>
      <stop offset="1" stop-color="#bd5539"/>
    </linearGradient>
    <linearGradient id="card" x1="0" y1="0" x2="1" y2="1">
      <stop offset="0" stop-color="#fffaf0"/>
      <stop offset="1" stop-color="#eadfcd"/>
    </linearGradient>
    <filter id="shadow" x="-20%" y="-20%" width="140%" height="140%">
      <feDropShadow dx="0" dy="20" stdDeviation="20" flood-color="#06110f" flood-opacity="0.35"/>
    </filter>
  </defs>

  <rect width="1280" height="520" rx="34" fill="url(#bg)"/>
  <path d="M0 390c170-56 322-64 456-23 165 50 302 55 458 11 120-34 234-38 366-12v154H0Z" fill="#f6f1e7" opacity="0.12"/>
  <circle cx="1090" cy="110" r="170" fill="#fffaf0" opacity="0.08"/>
  <circle cx="112" cy="432" r="128" fill="#d7b46a" opacity="0.13"/>

  <g transform="translate(76 76)">
    <rect x="0" y="0" width="660" height="368" rx="24" fill="#fffaf0" opacity="0.98" filter="url(#shadow)"/>
    <rect x="0" y="0" width="660" height="60" rx="24" fill="#0f1f1e"/>
    <circle cx="32" cy="30" r="8" fill="#d65b43"/>
    <circle cx="58" cy="30" r="8" fill="#e6b85c"/>
    <circle cx="84" cy="30" r="8" fill="#7eaa82"/>
    <text x="34" y="118" font-family="Consolas, Menlo, monospace" font-size="24" fill="#bd5539" font-weight="700">$ deploy student project</text>
    <text x="34" y="164" font-family="Consolas, Menlo, monospace" font-size="22" fill="#0f1f1e">nginx  ->  frontend dist</text>
    <text x="34" y="206" font-family="Consolas, Menlo, monospace" font-size="22" fill="#0f1f1e">systemd ->  spring boot jar</text>
    <text x="34" y="248" font-family="Consolas, Menlo, monospace" font-size="22" fill="#0f1f1e">docker  ->  fullstack compose</text>
    <rect x="34" y="292" width="210" height="38" rx="8" fill="#173b37"/>
    <text x="56" y="318" font-family="Inter, Arial, sans-serif" font-size="18" fill="#fffaf0" font-weight="700">copy, edit, ship</text>
  </g>

  <g transform="translate(802 86)">
    <text x="0" y="42" font-family="Georgia, serif" font-size="52" fill="#fffaf0" font-weight="700">Student</text>
    <text x="0" y="102" font-family="Georgia, serif" font-size="52" fill="#fffaf0" font-weight="700">Deploy Kit</text>
    <text x="0" y="154" font-family="Inter, Arial, sans-serif" font-size="24" fill="#f6f1e7" opacity="0.92">Nginx, Spring Boot, frontend,</text>
    <text x="0" y="188" font-family="Inter, Arial, sans-serif" font-size="24" fill="#f6f1e7" opacity="0.92">Docker and VPS security templates.</text>

    <g transform="translate(0 236)">
      <rect width="126" height="40" rx="20" fill="#fffaf0"/>
      <text x="26" y="26" font-family="Inter, Arial, sans-serif" font-size="16" fill="#0f1f1e" font-weight="700">Nginx</text>
      <rect x="144" width="174" height="40" rx="20" fill="#fffaf0"/>
      <text x="169" y="26" font-family="Inter, Arial, sans-serif" font-size="16" fill="#0f1f1e" font-weight="700">Spring Boot</text>
      <rect x="336" width="132" height="40" rx="20" fill="#fffaf0"/>
      <text x="366" y="26" font-family="Inter, Arial, sans-serif" font-size="16" fill="#0f1f1e" font-weight="700">Docker</text>
    </g>
  </g>
</svg>
